This is my own rip.

General
Unique ID                        : 216322259002991174520655001508327042584 (0xA2BE26D0E7A4F20BA119FA3EEA0DAE18)
Format                           : Matroska
Format version                   : Version 4 / Version 2
File size                        : 1.71 GiB
Duration                         : 1h 40mn
Overall bit rate mode            : Variable
Overall bit rate                 : 2 431 Kbps
Encoded date                     : UTC 2013-06-18 11:37:35
Writing application              : mkvmerge v6.1.0 ('Old Devil') built on Mar  2 2013 14:32:37
Writing library                  : libebml v1.3.0 + libmatroska v1.4.0

Video
ID                               : 1
Format                           : AVC
Format/Info                      : Advanced Video Codec
Format profile                   : High@L4.1
Format settings, CABAC           : Yes
Format settings, ReFrames        : 7 frames
Codec ID                         : V_MPEG4/ISO/AVC
Duration                         : 1h 40mn
Bit rate mode                    : Variable
Bit rate                         : 1 998 Kbps
Maximum bit rate                 : 7.75 Mbps
Width                            : 1 280 pixels
Height                           : 692 pixels
Display aspect ratio             : 1.850
Frame rate                       : 23.976 fps
Color space                      : YUV
Chroma subsampling               : 4:2:0
Bit depth                        : 8 bits
Scan type                        : Progressive
Bits/(Pixel*Frame)               : 0.094
Stream size                      : 1.41 GiB (82%)
Writing library                  : x264 core 129 r2245 bc13772
Language                         : English
Default                          : Yes
Forced                           : No

Audio
ID                               : 2
Format                           : AC-3
Format/Info                      : Audio Coding 3
Mode extension                   : CM (complete main)
Codec ID                         : A_AC3
Duration                         : 1h 40mn
Bit rate mode                    : Constant
Bit rate                         : 384 Kbps
Channel(s)                       : 2 channels
Channel positions                : Front: L R
Sampling rate                    : 48.0 KHz
Bit depth                        : 16 bits
Compression mode                 : Lossy
Stream size                      : 277 MiB (16%)
Language                         : English
Default                          : Yes
Forced                           : No

Menu
00:00:00.000                     : Just a Game (Main Titles)
00:05:50.267                     : Can't Get a Date
00:10:42.183                     : Happy Hunting
00:15:40.481                     : I Speak English
00:21:42.843                     : Teaching Love
00:26:35.219                     : Change in Plan
00:33:59.037                     : Welcome to the DDR
00:41:26.359                     : The Pickup
00:46:18.025                     : Use the Boy
00:50:42.998                     : Waiting for a Call
00:55:21.109                     : Visa Problems
01:01:16.923                     : Sasha's in Trouble
01:06:29.569                     : Got a Gig
01:09:40.782                     : Back in the USA
01:16:47.895                     : KGB or CIA?
01:22:45.419                     : Play By My Rules
01:29:16.309                     : The Truth Comes Out
01:37:34.599                     : End Titles
